<svg data-v-0dd9719b="" version="1.0" xmlns="http://www.w3.org/2000/svg" xmlns:xlink="http://www.w3.org/1999/xlink" width="100%" height="100%" viewBox="0 0 340.000000 250.000000" preserveAspectRatio="xMidYMid meet" color-interpolation-filters="sRGB" style="margin: auto;"> <rect data-v-0dd9719b="" x="0" y="0" width="100%" height="100%" fill="#fff" fill-opacity="1" class="background"></rect> <rect data-v-0dd9719b="" x="0" y="0" width="100%" height="100%" fill="url(#watermark)" fill-opacity="1" class="watermarklayer"></rect> <g data-v-0dd9719b="" fill="#333" class="icon-text-wrapper icon-svg-group iconsvg" transform="translate(54.73500061035156,91.58758926391602)"><g class="iconsvg-imagesvg" transform="translate(0,0)"><g><rect fill="#333" fill-opacity="0" stroke-width="2" x="0" y="0" width="60" height="66.82481873767918" class="image-rect"></rect> <svg x="0" y="0" width="60" height="66.82481873767918" filtersec="colorsb161510711" class="image-svg-svg primary" style="overflow: visible;"><svg xmlns="http://www.w3.org/2000/svg" viewBox="0 -0.0028373277746140957 89.81000518798828 100.02556610107422"><title>资源 134</title><path d="M64.35 47.87c-.58 0-1.17 0-1.74.05.34.73.66 1.46 1 2.2a64.86 64.86 0 0 1 5.14 25.46 65.77 65.77 0 0 1-1.34 13.26L84.44 79a11.89 11.89 0 0 0 5.37-9.28v-10a33.48 33.48 0 0 0-25.46-11.85zM21.49 69a9.3 9.3 0 0 1 9.3-9.31 9.07 9.07 0 0 1 1.66.15 39.44 39.44 0 0 1 4.73-5.73 38.15 38.15 0 0 1 15.09-9.32 58 58 0 0 0-41.94-26.64L5.38 21A11.9 11.9 0 0 0 0 30.28v39.44A11.9 11.9 0 0 0 5.38 79l22 12.68a38.86 38.86 0 0 1-1.19-14.63 9.3 9.3 0 0 1-4.7-8.05z" fill="#275cde"></path><path d="M84.44 21L50.28 1.28a11.86 11.86 0 0 0-10.73 0L20.29 12.4a64 64 0 0 1 8.49 2.92 65.23 65.23 0 0 1 20.79 14 65.61 65.61 0 0 1 10.52 13.76 37.62 37.62 0 0 1 4.26-.24 38.33 38.33 0 0 1 25.46 9.64v-22.2A11.92 11.92 0 0 0 84.44 21z" fill="#0a2183"></path><path d="M37 62.08a9.31 9.31 0 0 1-5.95 16.2c-.08 1-.13 2-.13 3a33.2 33.2 0 0 0 3.26 14.39l5.33 3.07a11.84 11.84 0 0 0 10.72 0l7.87-4.54a57.76 57.76 0 0 0-3.27-44.94A33.46 33.46 0 0 0 37 62.08z" fill="#01cfff"></path></svg></svg> <!----></g></g> <g transform="translate(67,9.53116226196289)"><g data-gra="path-name" fill-rule="" class="tp-name iconsvg-namesvg" transform="translate(0,0)"><g transform="scale(1)"><g><path d="M12.96-24.75L21.78-24.75 23.49-26.59 18.09-26.59 17.55-25.7 12.55-25.7 15.52-30.42 14.85-31.9 21.29-31.9 20.38-30.46 29.2-30.46 28.62-26.32 27.04-24.75 29.97-24.75 28.21-12.15 11.21-12.15 12.96-24.75ZM11.21-25.15L10.48-20.02 7.6 0.36 0.85 0.36 3.46-18.27 1.8-17.86 2.52-22.99 11.21-25.15ZM8.5 0.32L13.41-6.79 10.17-6.79 10.66-10.44 15.93-10.44 16.83-11.7 22.95-11.7 22.09-10.44 27.77-10.44 27.27-6.79 23.8-6.79 26.19 0.32 19.93 0.32 18.27-4.81 14.76 0.32 8.5 0.32ZM30.42-22.18L39.82-22.18 39.24-18.04 38.25-18.04 36.09-2.56Q35.87-1.26 34.88-0.43 33.88 0.4 32.58 0.4L32.58 0.4 26.14 0.4 30.15-3.73 32.17-18.04 29.83-18.04 30.42-22.18ZM12.2-31.99L11.47-26.86 2.75-24.7 3.46-29.83 12.2-31.99ZM32.27-31.05L40.5-31.05 39.91-26.91 31.68-26.91 32.27-31.05ZM17.23-21.6L16.96-19.75 18.86-19.75 19.08-21.6 17.23-21.6ZM24.75-21.6L22.99-21.6 22.77-19.75 24.48-19.75 24.75-21.6ZM16.38-15.43L18.22-15.43 18.45-17.1 16.61-17.1 16.38-15.43ZM22.14-15.43L23.89-15.43 24.12-17.1 22.36-17.1 22.14-15.43ZM58.36-0.49L62.5-29.65 61.24-31 82.17-31 77.85-0.49 58.36-0.49ZM54.18-27.09L52.11-27.09 48.24 0.32 41.98 0.32 46.39-31.14 60.48-31.14 59.94-27.31 58.05-20.02 59.76-20.02 59.22-16.16 56.74-4.63 49.91-4.63 50.45-8.46 51.8-8.46 53.41-16.16 51.75-16.16 52.29-20.02 54.18-27.09ZM65.88-5L71.69-5 72.94-13.95 67.14-13.95 65.88-5ZM68.89-26.5L67.77-18.45 73.57-18.45 74.7-26.5 68.89-26.5ZM122.89-23.85L122.31-19.57 104.04-17.5 102.38-5.49 117.81-5.49 119.7-7.15 118.75-0.36 93.1-0.36 95.35-16.56 84.06-15.3 84.69-19.57 95.94-20.84 97.29-30.33 95.85-31.99 106.06-31.99 104.63-21.78 122.89-23.85ZM136.89-22.41L142.65-22.41 142.96-24.52 149.26-24.52 148.95-22.41 154.89-22.41 154.39-18.81 152.95-18.81 152.23-13.28 152.19-13.28 147.82-8.91 152.77-2.92 153.58-3.78 156.69-26.01 138.15-26.01 138.78-30.29 164.38-30.29 160.47-2.56Q160.29-1.26 159.28-0.43 158.26 0.4 157 0.4L157 0.4 149.58 0.4 152.73-2.88 146.2-2.88 143.5-6.17 140.04-2.88 133.83-2.88 140.26-8.91 137.02-13.28 136.94-13.28 137.66-18.81 136.39-18.81 136.89-22.41ZM128.88-24.3L135.94-24.3 132.48 0.4 125.41 0.4 128.88-24.3ZM129.42-31.14L136.48-31.14 136.57-25.47 129.51-25.47 129.42-31.14ZM144.54-12.91L146.83-15.07 147.33-18.81 143.28-18.81 142.78-15.12 144.54-12.91Z" transform="translate(-0.8500000238418579, 31.989999771118164)"></path></g> <!----> <!----> <!----> <!----> <!----> <!----> <!----></g></g> <g data-gra="path-slogan" fill-rule="" class="tp-slogan iconsvg-slogansvg" fill="#333" transform="translate(5,38.38999938964844)"><rect x="0" height="1" y="4.185000419616699" width="21.5"></rect> <rect height="1" y="4.185000419616699" width="21.5" x="132.02999877929688"></rect> <g transform="translate(24.5,0)"><g transform="scale(1)"><path d="M2.06-5.06L6.56-5.06L6.56-8.58L7.73-8.58L7.73 0L6.56 0L6.56-3.98L2.06-3.98L2.06 0L0.89 0L0.89-8.58L2.06-8.58L2.06-5.06ZM10.83-1.03L15.98-1.03L15.98 0L9.66 0L9.66-8.58L15.89-8.58L15.89-7.59L10.83-7.59L10.83-4.92L15.52-4.92L15.52-3.89L10.83-3.89L10.83-1.03ZM18.89-8.58L23.20-1.64L23.20-8.58L24.33-8.58L24.33 0L23.02 0L18.66-6.94L18.61-6.94L18.61 0L17.48 0L17.48-8.58L18.89-8.58ZM32.53-3.61L29.91-3.61L29.91-4.59L33.66-4.59L33.66 0L32.91 0L32.63-1.08Q31.64 0.09 29.81 0.14L29.81 0.14Q28.08 0.14 27.14-0.75L27.14-0.75Q25.73-2.06 25.78-4.36L25.78-4.36Q26.11-8.63 29.86-8.81L29.86-8.81Q33.05-8.63 33.52-6L33.52-6L32.39-6Q31.92-7.78 29.81-7.83L29.81-7.83Q27.14-7.64 27-4.31L27-4.31Q27-0.75 29.86-0.75L29.86-0.75Q30.89-0.75 31.64-1.31L31.64-1.31Q32.58-2.06 32.53-3.61L32.53-3.61ZM42.38-8.58L39.14-3.47L39.14 0L37.97 0L37.97-3.47L34.73-8.58L36.09-8.58L38.53-4.45L41.02-8.58L42.38-8.58ZM49.08 0L48.23-2.48L44.77-2.48L43.88 0L42.70 0L45.94-8.58L47.25-8.58L50.34 0L49.08 0ZM46.50-7.31L45.14-3.52L47.81-3.52L46.55-7.31L46.50-7.31ZM52.78-8.58L57.09-1.64L57.09-8.58L58.22-8.58L58.22 0L56.91 0L52.55-6.94L52.50-6.94L52.50 0L51.38 0L51.38-8.58L52.78-8.58ZM66.42-3.61L63.80-3.61L63.80-4.59L67.55-4.59L67.55 0L66.80 0L66.52-1.08Q65.53 0.09 63.70 0.14L63.70 0.14Q61.97 0.14 61.03-0.75L61.03-0.75Q59.63-2.06 59.67-4.36L59.67-4.36Q60-8.63 63.75-8.81L63.75-8.81Q66.94-8.63 67.41-6L67.41-6L66.28-6Q65.81-7.78 63.70-7.83L63.70-7.83Q61.03-7.64 60.89-4.31L60.89-4.31Q60.89-0.75 63.75-0.75L63.75-0.75Q64.78-0.75 65.53-1.31L65.53-1.31Q66.47-2.06 66.42-3.61L66.42-3.61ZM77.67-1.08L76.78-1.78L77.39-2.48L78.47-1.64Q79.45-2.63 79.45-4.27L79.45-4.27Q79.27-7.64 76.45-7.83L76.45-7.83Q73.59-7.69 73.45-4.27L73.45-4.27Q73.59-0.94 76.45-0.80L76.45-0.80Q77.16-0.80 77.67-1.08L77.67-1.08ZM79.41-0.94L80.53-0.05L79.97 0.56L78.66-0.33Q77.81 0.14 76.45 0.14L76.45 0.14Q72.52 0 72.23-4.27L72.23-4.27Q72.47-8.72 76.45-8.81L76.45-8.81Q80.34-8.67 80.63-4.27L80.63-4.27Q80.58-2.20 79.41-0.94L79.41-0.94ZM82.17-8.58L83.34-8.58L83.34 0L82.17 0L82.17-8.58ZM93.56-8.58L93.56 0L92.44 0L92.44-5.06Q92.44-5.77 92.44-7.22L92.44-7.22L90 0L88.83 0L86.44-7.22L86.39-7.22Q86.39-6.70 86.44-5.67L86.44-5.67Q86.44-5.16 86.44-5.06L86.44-5.06L86.44 0L85.27 0L85.27-8.58L86.95-8.58L89.44-1.31L91.88-8.58L93.56-8.58ZM95.44-8.58L96.61-8.58L96.61 0L95.44 0L95.44-8.58ZM99.98-8.58L104.30-1.64L104.30-8.58L105.42-8.58L105.42 0L104.11 0L99.75-6.94L99.70-6.94L99.70 0L98.58 0L98.58-8.58L99.98-8.58Z" transform="translate(-0.890625, 8.8125)"></path></g></g></g></g></g><defs v-gra="od"></defs></svg>